<?xml version="1.0" encoding="UTF-8" standalone="no"?>
<svg
   xmlns:dc="http://purl.org/dc/elements/1.1/"
   xmlns:cc="http://creativecommons.org/ns#"
   xmlns:rdf="http://www.w3.org/1999/02/22-rdf-syntax-ns#"
   xmlns:svg="http://www.w3.org/2000/svg"
   xmlns="http://www.w3.org/2000/svg"
   xmlns:sodipodi="http://sodipodi.sourceforge.net/DTD/sodipodi-0.dtd"
   xmlns:inkscape="http://www.inkscape.org/namespaces/inkscape"
   id="Layer_1"
   style="enable-background:new 0 0 64 64;"
   version="1.1"
   viewBox="0 0 64 64"
   xml:space="preserve"
   sodipodi:docname="friend-time-icon-2.svg"
   inkscape:export-filename="C:\Users\kevin\Pictures\Code\Friend Time\Design 3\friend-time-icon.png"
   inkscape:export-xdpi="3491.1313"
   inkscape:export-ydpi="3491.1313"
   inkscape:version="1.0.2-2 (e86c870879, 2021-01-15)"><metadata
     id="metadata70"><rdf:RDF><cc:Work
         rdf:about=""><dc:format>image/svg+xml</dc:format><dc:type
           rdf:resource="http://purl.org/dc/dcmitype/StillImage" /><dc:title></dc:title></cc:Work></rdf:RDF></metadata><defs
     id="defs68" /><sodipodi:namedview
     pagecolor="#ffffff"
     bordercolor="#666666"
     borderopacity="1"
     objecttolerance="10"
     gridtolerance="10"
     guidetolerance="10"
     inkscape:pageopacity="0"
     inkscape:pageshadow="2"
     inkscape:window-width="2560"
     inkscape:window-height="1361"
     id="namedview66"
     showgrid="false"
     inkscape:zoom="11.136932"
     inkscape:cx="31.166461"
     inkscape:cy="21.701231"
     inkscape:window-x="1341"
     inkscape:window-y="329"
     inkscape:window-maximized="1"
     inkscape:current-layer="Layer_1" /><style
     type="text/css"
     id="style51">
	.st0{fill:#D9DCE1;}
	.st1{fill:#FFFFFF;}
	.st2{fill:#56AAFF;}
	.st3{fill:#0478ED;}
	.st4{fill:none;stroke:#0478ED;stroke-width:2;stroke-linecap:square;stroke-miterlimit:10;}
	.st5{fill:none;stroke:#D9DCE1;stroke-width:2;stroke-linecap:round;stroke-miterlimit:10;}
	.st6{fill:none;stroke:#FFFFFF;stroke-width:3;stroke-linecap:round;stroke-linejoin:round;stroke-miterlimit:10;}
	.st7{fill-rule:evenodd;clip-rule:evenodd;fill:#0478ED;}
	.st8{fill:none;stroke:#FFFFFF;stroke-width:5;stroke-linecap:square;stroke-miterlimit:10;}
	.st9{fill:none;stroke:#0478ED;stroke-width:3;stroke-linecap:square;stroke-miterlimit:10;}
	.st10{fill:none;stroke:#0478ED;stroke-width:3;stroke-miterlimit:10;}
	.st11{fill:none;stroke:#D9DCE1;stroke-width:4;stroke-miterlimit:10;}
	.st12{fill:none;stroke:#D9DCE1;stroke-width:2;stroke-miterlimit:10;}
	.st13{fill:none;stroke:#56AAFF;stroke-width:3;stroke-linecap:round;stroke-miterlimit:10;}
	.st14{fill:none;stroke:#56AAFF;stroke-width:4;stroke-linecap:round;stroke-miterlimit:10;}
	.st15{fill:none;stroke:#D9DCE1;stroke-width:3;stroke-miterlimit:10;}
	.st16{fill:none;stroke:#56AAFF;stroke-width:2;stroke-linecap:round;stroke-miterlimit:10;}
	.st17{fill:none;stroke:#0478ED;stroke-width:3;stroke-linecap:round;stroke-miterlimit:10;}
	.st18{fill:none;stroke:#56AAFF;stroke-linecap:round;stroke-miterlimit:10;}
	.st19{fill:none;stroke:#0478ED;stroke-width:2;stroke-linecap:round;stroke-miterlimit:10;}
	.st20{fill:none;stroke:#D9DCE1;stroke-width:12.605;stroke-linecap:round;stroke-miterlimit:10;}
	.st21{fill:none;stroke:#FFFFFF;stroke-width:2;stroke-linecap:round;stroke-linejoin:round;stroke-miterlimit:10;}
	.st22{fill:none;stroke:#FFFFFF;stroke-width:2;stroke-linecap:square;stroke-miterlimit:10;}
	.st23{fill:none;stroke:#FFFFFF;stroke-width:4;stroke-linecap:round;stroke-linejoin:round;stroke-miterlimit:10;}
	.st24{fill:none;stroke:#FFFFFF;stroke-width:2;stroke-miterlimit:10;}
	.st25{fill-rule:evenodd;clip-rule:evenodd;fill:#56AAFF;}
	.st26{fill:none;stroke:#0478ED;stroke-width:4;stroke-linecap:round;stroke-miterlimit:10;}
	.st27{fill:none;stroke:#0478ED;stroke-width:2;stroke-miterlimit:10;stroke-dasharray:2,2;}
</style><path
     class="st2"
     d="M34,8.1c-3.4-0.3-6.7,0.2-10,1.3c-1.3,1.2-2.6,2.8-3.7,4.6c-0.7,1.2-1.4,2.6-1.9,4h-5.9c-0.9,1.3-1.7,2.6-2.3,4  h7c-0.6,2.6-1,5.3-1.1,8h-8c-0.1,1.3-0.1,2.7,0,4h8c0.1,2.7,0.5,5.4,1.1,8h-7c0.6,1.4,1.4,2.7,2.3,4h5.9c0.5,1.4,1.2,2.7,1.9,4  c1.1,1.9,2.3,3.4,3.7,4.6c3.2,1.1,6.6,1.6,10,1.3V8.1z M30,53.7c-2.3-0.7-4.4-2.7-6.2-5.7c-0.4-0.6-0.7-1.3-1-2H30V53.7z M30,42  h-8.7c-0.7-2.5-1.2-5.2-1.3-8h10V42z M30,30H20c0.1-2.8,0.6-5.5,1.3-8H30V30z M30,18h-7.2c0.3-0.7,0.6-1.3,1-2c1.8-3,3.9-5,6.2-5.7  V18z"
     id="path57"
     style="fill:#0099ff;fill-opacity:1" /><line
     class="st23"
     x1="32"
     x2="41.7"
     y1="32"
     y2="39"
     id="line55"
     inkscape:export-xdpi="17454.545"
     inkscape:export-ydpi="17454.545"
     style="stroke:#56aaff;stroke-opacity:1" /><g
     id="g61"><path
       class="st3"
       d="M40.1,17l-7.2,15.4c-0.2,0.5-0.8,0.7-1.3,0.5c-0.5-0.2-0.7-0.8-0.5-1.3l0,0l7.3-15.4c0.2-0.5,0.8-0.7,1.3-0.5   C40.2,16,40.4,16.6,40.1,17z"
       id="path59"
       style="stroke-width:1;stroke-miterlimit:4;stroke-dasharray:none" /></g><circle
     class="st3"
     cx="32"
     cy="32"
     r="3.1"
     id="circle63" /><circle
     style="fill:none;fill-opacity:1;stroke:#0099ff;stroke-width:4;stroke-miterlimit:4;stroke-dasharray:none;stroke-opacity:1"
     id="path76"
     cy="32"
     cx="32"
     r="24.123339" /></svg>
